<svg width="16" height="12" viewBox="0 0 16 12" fill="none" xmlns="http://www.w3.org/2000/svg">
<path fill-rule="evenodd" clip-rule="evenodd" d="M13.5106 7.1329C11.9384 8.68804 9.98631 10 8.08691 10C6.18752 10 4.23541 8.68804 2.66318 7.1329C2.01071 6.48752 2.01071 5.51248 2.66318 4.8671C4.23541 3.31196 6.18752 2 8.08691 2C9.98631 2 11.9384 3.31196 13.5106 4.8671C14.1631 5.51248 14.1631 6.48752 13.5106 7.1329ZM14.9171 3.44518C16.361 4.87334 16.361 7.12666 14.9171 8.55482C13.2665 10.1875 10.8189 12 8.08691 12C5.35495 12 2.90729 10.1875 1.25671 8.55482C-0.187134 7.12666 -0.187133 4.87334 1.25671 3.44518C2.90729 1.81254 5.35495 0 8.08691 0C10.8189 0 13.2665 1.81255 14.9171 3.44518ZM8.08693 9C9.74379 9 11.0869 7.65685 11.0869 6C11.0869 4.34315 9.74379 3 8.08693 3C6.43007 3 5.08692 4.34315 5.08692 6C5.08692 7.65685 6.43007 9 8.08693 9Z" fill="#6C6773"/>
</svg>
