<svg width="16" height="13" viewBox="0 0 16 13" fill="none" xmlns="http://www.w3.org/2000/svg">
<path fill-rule="evenodd" clip-rule="evenodd" d="M11.5612 1.85555C10.4684 1.35037 9.26452 1.01213 8.00001 1.01213C5.15269 1.01213 2.61279 2.72712 0.955635 4.20117C-0.318545 5.33438 -0.318545 7.23735 0.955635 8.37057C1.50534 8.85953 2.15217 9.375 2.87514 9.8456L4.02429 8.78854C3.26528 8.32803 2.56651 7.78685 1.95706 7.24471C1.3567 6.71075 1.3567 5.86098 1.95706 5.32702C3.53906 3.91975 5.72288 2.51891 8.00001 2.51891C8.79964 2.51891 9.58777 2.69165 10.3424 2.97675L11.5612 1.85555ZM12.2793 2.21872L11.0994 3.30406C11.1007 3.3047 11.102 3.30535 11.1034 3.30599L10.1546 4.1788C10.1536 4.17781 10.1526 4.17682 10.1517 4.17584L5.718 8.25421C5.71892 8.25527 5.71985 8.25634 5.72077 8.25741L4.72029 9.17774C4.71895 9.17705 4.7176 9.17636 4.71626 9.17568L3.54395 10.254C3.54525 10.2548 3.54655 10.2555 3.54785 10.2563L2.90737 10.8454C2.60114 11.1271 2.58126 11.6037 2.86295 11.91C3.14465 12.2162 3.62126 12.2361 3.92749 11.9544L5.00871 10.9598C5.94499 11.3271 6.95166 11.5596 8.00001 11.5596C10.8473 11.5596 13.3872 9.84461 15.0444 8.37057C16.3185 7.23735 16.3185 5.33438 15.0444 4.20117C14.6193 3.82308 14.1362 3.42915 13.6047 3.05237L14.5807 2.15455C14.8869 1.87285 14.9068 1.39624 14.6251 1.09002C14.3434 0.783791 13.8668 0.763905 13.5606 1.0456L12.2831 2.2208C12.2818 2.22011 12.2805 2.21941 12.2793 2.21872ZM5.29633 7.61843L9.5531 3.70277C9.09954 3.4295 8.56815 3.2723 8.00003 3.2723C6.33568 3.2723 4.98646 4.62145 4.98646 6.28587C4.98646 6.76429 5.09793 7.21666 5.29633 7.61843ZM12.4679 4.09815L10.9167 5.52502C10.98 5.76806 11.0136 6.02303 11.0136 6.28587C11.0136 7.95028 9.66438 9.29943 8.00003 9.29943C7.64903 9.29943 7.31205 9.23943 6.99878 9.12912L6.27084 9.79875C6.8353 9.96023 7.41457 10.0528 8.00001 10.0528C10.2771 10.0528 12.461 8.65199 14.043 7.24471C14.6433 6.71075 14.6433 5.86098 14.043 5.32702C13.5677 4.90421 13.038 4.48198 12.4679 4.09815Z" fill="#6C6773"/>
</svg>
