<svg width="54" height="54" viewBox="0 0 54 54" fill="none" xmlns="http://www.w3.org/2000/svg">
<circle cx="27" cy="27" r="27" fill="#EAE6FE"/>
<g clip-path="url(#clip0_1607_30172)">
<path d="M23.5971 17V21.0125C22.3286 21.0825 21.3681 21.314 20.7166 21.7075C20.0646 22.101 19.6066 22.739 19.3421 23.622C19.0781 24.505 18.9456 25.768 18.9456 27.4115H23.5971V36.984H14.0566V27.8835C14.0566 24.1245 14.8626 21.371 16.4746 19.6225C18.0871 17.874 20.4611 17 23.5971 17ZM38.0001 17V21.0125C36.7316 21.0825 35.7716 21.3055 35.1196 21.6815C34.4676 22.057 33.9961 22.6955 33.7056 23.596C33.4151 24.496 33.2696 25.768 33.2696 27.4115H38.0001V36.984H28.4071V27.8835C28.4071 24.1245 29.2086 21.371 30.8116 19.6225C32.4151 17.874 34.8111 17 38.0001 17Z" fill="#8D92E9"/>
</g>
<defs>
<clipPath id="clip0_1607_30172">
<rect width="32" height="32" fill="white" transform="translate(10 11)"/>
</clipPath>
</defs>
</svg>
